<svg version="1.1" viewBox="0.0 0.0 1024.0 768.0" fill="none" stroke="none" stroke-linecap="square" stroke-miterlimit="10" xmlns:xlink="http://www.w3.org/1999/xlink" xmlns="http://www.w3.org/2000/svg"><clipPath id="p.0"><path d="m0 0l1024.0 0l0 768.0l-1024.0 0l0 -768.0z" clip-rule="nonzero"/></clipPath><g clip-path="url(#p.0)"><path fill="#000000" fill-opacity="0.0" d="m0 0l1024.0 0l0 768.0l-1024.0 0z" fill-rule="evenodd"/><path fill="#cfe2f3" d="m50.430447 61.984253l278.4252 0l0 180.69292l-278.4252 0z" fill-rule="evenodd"/><path stroke="#000000" stroke-width="1.0" stroke-linejoin="round" stroke-linecap="butt" d="m50.430447 61.984253l278.4252 0l0 180.69292l-278.4252 0z" fill-rule="evenodd"/><path fill="#000000" fill-opacity="0.0" d="m109.26509 239.53806c5.603241 -4.902878 24.513992 -14.183289 33.61943 -29.417328c9.105423 -15.234024 14.534119 -37.297455 21.013123 -61.986862c6.479004 -24.689423 14.884064 -71.79134 17.860886 -86.14961" fill-rule="evenodd"/><path stroke="#000000" stroke-width="1.0" stroke-linejoin="round" stroke-linecap="butt" d="m109.26509 239.53806c5.603241 -4.902878 24.513992 -14.183289 33.61943 -29.417328c9.105423 -15.234024 14.534119 -37.297455 21.013123 -61.986862c6.479004 -24.689423 14.884064 -71.79134 17.860886 -86.14961" fill-rule="evenodd"/><path fill="#000000" fill-opacity="0.0" d="m309.54855 25.868767l27.307098 0l0 42.015747l-27.307098 0z" fill-rule="evenodd"/><path fill="#000000" d="m325.50168 52.788765l-1.640625 0l0 -10.453125q-0.59375 0.5625 -1.5625 1.140625q-0.953125 0.5625 -1.71875 0.84375l0 -1.59375q1.375 -0.640625 2.40625 -1.5625q1.03125 -0.921875 1.453125 -1.78125l1.0625 0l0 13.40625z" fill-rule="nonzero"/><path fill="#000000" fill-opacity="0.0" d="m265.8058 59.884514l-37.826782 187.02362" fill-rule="evenodd"/><path stroke="#000000" stroke-width="1.0" stroke-linejoin="round" stroke-linecap="butt" d="m265.8058 59.884514l-37.826782 187.02362" fill-rule="evenodd"/><path fill="#000000" fill-opacity="0.0" d="m36.12861 26.26509l27.307087 0l0 42.015747l-27.307087 0z" fill-rule="evenodd"/><path fill="#000000" d="m45.90986 46.59134q0 -2.359375 0.484375 -3.796875q0.484375 -1.453125 1.4375 -2.234375q0.96875 -0.78125 2.421875 -0.78125q1.078125 0 1.890625 0.4375q0.8125 0.421875 1.328125 1.25q0.53125 0.8125 0.828125 1.984375q0.3125 1.15625 0.3125 3.140625q0 2.359375 -0.484375 3.8125q-0.484375 1.4375 -1.453125 2.234375q-0.953125 0.78125 -2.421875 0.78125q-1.921875 0 -3.03125 -1.390625q-1.3125 -1.671875 -1.3125 -5.4375zm1.671875 0q0 3.296875 0.765625 4.390625q0.78125 1.078125 1.90625 1.078125q1.140625 0 1.90625 -1.09375q0.765625 -1.09375 0.765625 -4.375q0 -3.296875 -0.765625 -4.375q-0.765625 -1.078125 -1.921875 -1.078125q-1.125 0 -1.796875 0.953125q-0.859375 1.21875 -0.859375 4.5z" fill-rule="nonzero"/><path fill="#000000" fill-opacity="0.0" d="m50.430447 152.3307l115.55905 -1.0393677" fill-rule="evenodd"/><path stroke="#000000" stroke-width="1.0" stroke-linejoin="round" stroke-linecap="butt" d="m56.430206 152.27675l103.55954 -0.9314575" fill-rule="evenodd"/><path fill="#000000" stroke="#000000" stroke-width="1.0" stroke-linecap="butt" d="m56.415348 150.62508l-4.52306 1.6924896l4.5527687 1.6108398z" fill-rule="evenodd"/><path fill="#000000" stroke="#000000" stroke-width="1.0" stroke-linecap="butt" d="m160.0046 152.99696l4.5230713 -1.6924744l-4.55278 -1.6108551z" fill-rule="evenodd"/><path fill="#000000" fill-opacity="0.0" d="m247.94226 153.40158l80.91339 -1.0708771" fill-rule="evenodd"/><path stroke="#000000" stroke-width="1.0" stroke-linejoin="round" stroke-linecap="butt" d="m253.94173 153.32217l68.914444 -0.9120636" fill-rule="evenodd"/><path fill="#000000" stroke="#000000" stroke-width="1.0" stroke-linecap="butt" d="m253.91988 151.67058l-4.5158386 1.7116547l4.559555 1.5915222z" fill-rule="evenodd"/><path fill="#000000" stroke="#000000" stroke-width="1.0" stroke-linecap="butt" d="m322.87802 154.06169l4.5158386 -1.7116394l-4.55954 -1.5915222z" fill-rule="evenodd"/><path fill="#000000" fill-opacity="0.0" d="m91.808395 140.78215l37.826782 0l0 42.015747l-37.826782 0z" fill-rule="evenodd"/><path fill="#000000" d="m102.027145 167.70215l0 -9.671875l1.46875 0l0 1.46875q0.5625 -1.03125 1.03125 -1.359375q0.484375 -0.328125 1.0625 -0.328125q0.828125 0 1.6875 0.53125l-0.5625 1.515625q-0.609375 -0.359375 -1.203125 -0.359375q-0.546875 0 -0.96875 0.328125q-0.421875 0.328125 -0.609375 0.890625q-0.28125 0.875 -0.28125 1.921875l0 5.0625l-1.625 0z" fill-rule="nonzero"/><path fill="#000000" d="m107.8492 167.06152l0 -1.265625l1.09375 0l0 1.265625l-1.09375 0zm0 7.640625l0 -6.453125l1.09375 0l0 6.453125l-1.09375 0zm6.575714 0l-1.09375 0l0 -6.96875q-0.40625 0.375 -1.046875 0.75q-0.640625 0.375 -1.140625 0.578125l0 -1.0625q0.90625 -0.4375 1.59375 -1.046875q0.6875 -0.609375 0.96875 -1.1875l0.71875 0l0 8.9375z" fill-rule="nonzero"/><path fill="#000000" fill-opacity="0.0" d="m269.60327 140.1485l37.826782 0l0 42.015747l-37.826782 0z" fill-rule="evenodd"/><path fill="#000000" d="m279.82202 167.0685l0 -9.671875l1.46875 0l0 1.46875q0.5625 -1.03125 1.03125 -1.359375q0.484375 -0.328125 1.0625 -0.328125q0.828125 0 1.6875 0.53125l-0.5625 1.515625q-0.609375 -0.359375 -1.203125 -0.359375q-0.546875 0 -0.96875 0.328125q-0.421875 0.328125 -0.609375 0.890625q-0.28125 0.875 -0.28125 1.921875l0 5.0625l-1.625 0z" fill-rule="nonzero"/><path fill="#000000" d="m285.64407 166.42787l0 -1.265625l1.09375 0l0 1.265625l-1.09375 0zm0 7.640625l0 -6.453125l1.09375 0l0 6.453125l-1.09375 0zm2.450714 -2.34375l1.09375 -0.15625q0.1875 0.9375 0.640625 1.34375q0.453125 0.40625 1.109375 0.40625q0.765625 0 1.296875 -0.53125q0.53125 -0.53125 0.53125 -1.328125q0 -0.75 -0.5 -1.234375q-0.484375 -0.5 -1.234375 -0.5q-0.3125 0 -0.78125 0.125l0.125 -0.953125q0.109375 0.015625 0.171875 0.015625q0.703125 0 1.265625 -0.359375q0.5625 -0.375 0.5625 -1.140625q0 -0.59375 -0.40625 -0.984375q-0.40625 -0.40625 -1.0625 -0.40625q-0.625 0 -1.0625 0.40625q-0.421875 0.40625 -0.546875 1.203125l-1.09375 -0.1875q0.203125 -1.109375 0.90625 -1.703125q0.71875 -0.609375 1.78125 -0.609375q0.71875 0 1.328125 0.3125q0.625 0.3125 0.953125 0.859375q0.328125 0.53125 0.328125 1.140625q0 0.578125 -0.3125 1.0625q-0.3125 0.46875 -0.921875 0.734375q0.796875 0.1875 1.234375 0.765625q0.4375 0.578125 0.4375 1.4375q0 1.15625 -0.859375 1.96875q-0.84375 0.8125 -2.140625 0.8125q-1.171875 0 -1.953125 -0.6875q-0.78125 -0.703125 -0.890625 -1.8125z" fill-rule="nonzero"/><path fill="#000000" fill-opacity="0.0" d="m163.88828 152.07948l84.031494 -0.5354309" fill-rule="evenodd"/><path stroke="#000000" stroke-width="1.0" stroke-linejoin="round" stroke-linecap="butt" d="m169.88814 152.04126l72.03175 -0.45896912" fill-rule="evenodd"/><path fill="#000000" stroke="#000000" stroke-width="1.0" stroke-linecap="butt" d="m169.87762 150.38956l-4.527481 1.6806183l4.548523 1.6227875z" fill-rule="evenodd"/><path fill="#000000" stroke="#000000" stroke-width="1.0" stroke-linecap="butt" d="m241.9304 153.23398l4.527481 -1.680603l-4.548523 -1.6227875z" fill-rule="evenodd"/><path fill="#000000" fill-opacity="0.0" d="m187.8084 140.78215l37.826782 0l0 42.015747l-37.826782 0z" fill-rule="evenodd"/><path fill="#000000" d="m198.02715 167.70215l0 -9.671875l1.46875 0l0 1.46875q0.5625 -1.03125 1.03125 -1.359375q0.484375 -0.328125 1.0625 -0.328125q0.828125 0 1.6875 0.53125l-0.5625 1.515625q-0.609375 -0.359375 -1.203125 -0.359375q-0.546875 0 -0.96875 0.328125q-0.421875 0.328125 -0.609375 0.890625q-0.28125 0.875 -0.28125 1.921875l0 5.0625l-1.625 0z" fill-rule="nonzero"/><path fill="#000000" d="m203.8492 167.06152l0 -1.265625l1.09375 0l0 1.265625l-1.09375 0zm0 7.640625l0 -6.453125l1.09375 0l0 6.453125l-1.09375 0zm8.200714 -1.046875l0 1.046875l-5.890625 0q-0.015625 -0.390625 0.125 -0.765625q0.234375 -0.59375 0.71875 -1.171875q0.5 -0.59375 1.4375 -1.359375q1.453125 -1.1875 1.953125 -1.875q0.515625 -0.703125 0.515625 -1.3125q0 -0.65625 -0.46875 -1.09375q-0.453125 -0.453125 -1.203125 -0.453125q-0.796875 0 -1.265625 0.46875q-0.46875 0.46875 -0.484375 1.3125l-1.125 -0.109375q0.125 -1.265625 0.875 -1.921875q0.75 -0.65625 2.015625 -0.65625q1.28125 0 2.03125 0.71875q0.75 0.703125 0.75 1.75q0 0.53125 -0.21875 1.046875q-0.21875 0.515625 -0.734375 1.09375q-0.5 0.5625 -1.671875 1.5625q-0.984375 0.828125 -1.265625 1.125q-0.28125 0.296875 -0.46875 0.59375l4.375 0z" fill-rule="nonzero"/><path fill="#000000" fill-opacity="0.0" d="m25.21407 114.51706l1.0393696 69.354324" fill-rule="evenodd"/><path stroke="#000000" stroke-width="1.0" stroke-linejoin="round" stroke-linecap="butt" d="m25.21407 114.51706l0.9494629 63.35501" fill-rule="evenodd"/><path fill="#000000" stroke="#000000" stroke-width="1.0" stroke-linecap="butt" d="m24.511984 177.89682l1.7195492 4.5128326l1.5835457 -4.562332z" fill-rule="evenodd"/><path fill="#000000" fill-opacity="0.0" d="m4.201715 131.32588l27.307087 0l0 42.015747l-27.307087 0z" fill-rule="evenodd"/><path fill="#000000" d="m14.43609 146.77713l0 -1.890625l1.640625 0l0 1.890625l-1.640625 0zm0 11.46875l0 -9.671875l1.640625 0l0 9.671875l-1.640625 0z" fill-rule="nonzero"/></g></svg>