<svg version="1.1" viewBox="0.0 0.0 1024.0 768.0" fill="none" stroke="none" stroke-linecap="square" stroke-miterlimit="10" xmlns:xlink="http://www.w3.org/1999/xlink" xmlns="http://www.w3.org/2000/svg"><clipPath id="p.0"><path d="m0 0l1024.0 0l0 768.0l-1024.0 0l0 -768.0z" clip-rule="nonzero"/></clipPath><g clip-path="url(#p.0)"><path fill="#000000" fill-opacity="0.0" d="m0 0l1024.0 0l0 768.0l-1024.0 0z" fill-rule="evenodd"/><path fill="#cfe2f3" d="m50.430447 60.947506l278.4252 0l0 180.69292l-278.4252 0z" fill-rule="evenodd"/><path stroke="#000000" stroke-width="1.0" stroke-linejoin="round" stroke-linecap="butt" d="m50.430447 60.947506l278.4252 0l0 180.69292l-278.4252 0z" fill-rule="evenodd"/><path fill="#000000" fill-opacity="0.0" d="m132.37665 237.97113c5.6032257 -4.902893 24.513992 -14.183289 33.619415 -29.417328c9.105423 -15.234024 14.534119 -37.297455 21.013123 -61.986877c6.479004 -24.689407 14.884079 -71.791336 17.860886 -86.1496" fill-rule="evenodd"/><path stroke="#000000" stroke-width="1.0" stroke-linejoin="round" stroke-linecap="butt" d="m132.37665 237.97113c5.6032257 -4.902893 24.513992 -14.183289 33.619415 -29.417328c9.105423 -15.234024 14.534119 -37.297455 21.013123 -61.986877c6.479004 -24.689407 14.884079 -71.791336 17.860886 -86.1496" fill-rule="evenodd"/><path fill="#000000" fill-opacity="0.0" d="m309.54855 25.868767l27.307098 0l0 42.015747l-27.307098 0z" fill-rule="evenodd"/><path fill="#000000" d="m325.50168 52.788765l-1.640625 0l0 -10.453125q-0.59375 0.5625 -1.5625 1.140625q-0.953125 0.5625 -1.71875 0.84375l0 -1.59375q1.375 -0.640625 2.40625 -1.5625q1.03125 -0.921875 1.453125 -1.78125l1.0625 0l0 13.40625z" fill-rule="nonzero"/><path fill="#000000" fill-opacity="0.0" d="m36.12861 26.26509l27.307087 0l0 42.015747l-27.307087 0z" fill-rule="evenodd"/><path fill="#000000" d="m45.90986 46.59134q0 -2.359375 0.484375 -3.796875q0.484375 -1.453125 1.4375 -2.234375q0.96875 -0.78125 2.421875 -0.78125q1.078125 0 1.890625 0.4375q0.8125 0.421875 1.328125 1.25q0.53125 0.8125 0.828125 1.984375q0.3125 1.15625 0.3125 3.140625q0 2.359375 -0.484375 3.8125q-0.484375 1.4375 -1.453125 2.234375q-0.953125 0.78125 -2.421875 0.78125q-1.921875 0 -3.03125 -1.390625q-1.3125 -1.671875 -1.3125 -5.4375zm1.671875 0q0 3.296875 0.765625 4.390625q0.78125 1.078125 1.90625 1.078125q1.140625 0 1.90625 -1.09375q0.765625 -1.09375 0.765625 -4.375q0 -3.296875 -0.765625 -4.375q-0.765625 -1.078125 -1.921875 -1.078125q-1.125 0 -1.796875 0.953125q-0.859375 1.21875 -0.859375 4.5z" fill-rule="nonzero"/><path fill="#000000" fill-opacity="0.0" d="m50.430447 151.29396l136.56693 -1.0393677" fill-rule="evenodd"/><path stroke="#000000" stroke-width="1.0" stroke-linejoin="round" stroke-linecap="butt" d="m56.43027 151.24829l124.567276 -0.94802856" fill-rule="evenodd"/><path fill="#000000" stroke="#000000" stroke-width="1.0" stroke-linecap="butt" d="m56.4177 149.59662l-4.5253944 1.6862183l4.550537 1.6171417z" fill-rule="evenodd"/><path fill="#000000" stroke="#000000" stroke-width="1.0" stroke-linecap="butt" d="m181.01012 151.95193l4.525406 -1.6862183l-4.550537 -1.6171417z" fill-rule="evenodd"/><path fill="#000000" fill-opacity="0.0" d="m328.85565 151.29396l-23.118134 -2.0787354" fill-rule="evenodd"/><path stroke="#000000" stroke-width="1.0" stroke-linejoin="round" stroke-linecap="butt" d="m322.87976 150.75662l-11.166351 -1.0040588" fill-rule="evenodd"/><path fill="#000000" stroke="#000000" stroke-width="1.0" stroke-linecap="butt" d="m322.73184 152.40172l4.6677856 -1.238678l-4.3719482 -2.0515137z" fill-rule="evenodd"/><path fill="#000000" stroke="#000000" stroke-width="1.0" stroke-linecap="butt" d="m311.86136 148.10747l-4.6677856 1.238678l4.3719177 2.0515137z" fill-rule="evenodd"/><path fill="#000000" fill-opacity="0.0" d="m91.808395 140.78215l37.826782 0l0 42.015747l-37.826782 0z" fill-rule="evenodd"/><path fill="#000000" d="m102.027145 167.70215l0 -9.671875l1.46875 0l0 1.46875q0.5625 -1.03125 1.03125 -1.359375q0.484375 -0.328125 1.0625 -0.328125q0.828125 0 1.6875 0.53125l-0.5625 1.515625q-0.609375 -0.359375 -1.203125 -0.359375q-0.546875 0 -0.96875 0.328125q-0.421875 0.328125 -0.609375 0.890625q-0.28125 0.875 -0.28125 1.921875l0 5.0625l-1.625 0z" fill-rule="nonzero"/><path fill="#000000" d="m107.8492 167.06152l0 -1.265625l1.09375 0l0 1.265625l-1.09375 0zm0 7.640625l0 -6.453125l1.09375 0l0 6.453125l-1.09375 0zm6.575714 0l-1.09375 0l0 -6.96875q-0.40625 0.375 -1.046875 0.75q-0.640625 0.375 -1.140625 0.578125l0 -1.0625q0.90625 -0.4375 1.59375 -1.046875q0.6875 -0.609375 0.96875 -1.1875l0.71875 0l0 8.9375z" fill-rule="nonzero"/><path fill="#000000" fill-opacity="0.0" d="m298.38278 98.76661l37.826782 0l0 42.01574l-37.826782 0z" fill-rule="evenodd"/><path fill="#000000" d="m308.60153 125.68661l0 -9.671875l1.46875 0l0 1.46875q0.5625 -1.03125 1.03125 -1.359375q0.484375 -0.328125 1.0625 -0.328125q0.828125 0 1.6875 0.53125l-0.5625 1.515625q-0.609375 -0.359375 -1.203125 -0.359375q-0.546875 0 -0.96875 0.328125q-0.421875 0.328125 -0.609375 0.890625q-0.28125 0.875 -0.28125 1.921875l0 5.0625l-1.625 0z" fill-rule="nonzero"/><path fill="#000000" d="m314.42358 125.04598l0 -1.265625l1.09375 0l0 1.265625l-1.09375 0zm0 7.6406174l0 -6.4531174l1.09375 0l0 6.4531174l-1.09375 0zm2.450714 -2.34375l1.09375 -0.15625q0.1875 0.9375 0.640625 1.34375q0.453125 0.40625 1.109375 0.40625q0.765625 0 1.296875 -0.53125q0.53125 -0.53125 0.53125 -1.328125q0 -0.75 -0.5 -1.234375q-0.484375 -0.5 -1.234375 -0.5q-0.3125 0 -0.78125 0.125l0.125 -0.9531174q0.109375 0.015625 0.171875 0.015625q0.703125 0 1.265625 -0.359375q0.5625 -0.375 0.5625 -1.140625q0 -0.59375 -0.40625 -0.984375q-0.40625 -0.40625 -1.0625 -0.40625q-0.625 0 -1.0625 0.40625q-0.421875 0.40625 -0.546875 1.203125l-1.09375 -0.1875q0.203125 -1.109375 0.90625 -1.703125q0.71875 -0.609375 1.78125 -0.609375q0.71875 0 1.328125 0.3125q0.625 0.3125 0.953125 0.859375q0.328125 0.53125 0.328125 1.140625q0 0.578125 -0.3125 1.0625q-0.3125 0.46875 -0.921875 0.734375q0.796875 0.18749237 1.234375 0.7656174q0.4375 0.578125 0.4375 1.4375q0 1.15625 -0.859375 1.96875q-0.84375 0.8125 -2.140625 0.8125q-1.171875 0 -1.953125 -0.6875q-0.78125 -0.703125 -0.890625 -1.8125z" fill-rule="nonzero"/><path fill="#000000" fill-opacity="0.0" d="m183.84776 148.14436l145.00789 3.1495972" fill-rule="evenodd"/><path stroke="#000000" stroke-width="1.0" stroke-linejoin="round" stroke-linecap="butt" d="m189.84636 148.27464l133.0107 2.8890228" fill-rule="evenodd"/><path fill="#000000" stroke="#000000" stroke-width="1.0" stroke-linecap="butt" d="m189.88222 146.6233l-4.572891 1.5527954l4.5011597 1.7498932z" fill-rule="evenodd"/><path fill="#000000" stroke="#000000" stroke-width="1.0" stroke-linecap="butt" d="m322.8212 152.81502l4.572876 -1.5527954l-4.5011597 -1.7498932z" fill-rule="evenodd"/><path fill="#000000" fill-opacity="0.0" d="m226.92914 148.14436l37.826782 0l0 42.015747l-37.826782 0z" fill-rule="evenodd"/><path fill="#000000" d="m237.14789 175.06436l0 -9.671875l1.46875 0l0 1.46875q0.5625 -1.03125 1.03125 -1.359375q0.484375 -0.328125 1.0625 -0.328125q0.828125 0 1.6875 0.53125l-0.5625 1.515625q-0.609375 -0.359375 -1.203125 -0.359375q-0.546875 0 -0.96875 0.328125q-0.421875 0.328125 -0.609375 0.890625q-0.28125 0.875 -0.28125 1.921875l0 5.0625l-1.625 0z" fill-rule="nonzero"/><path fill="#000000" d="m242.96994 174.42374l0 -1.265625l1.09375 0l0 1.265625l-1.09375 0zm0 7.640625l0 -6.453125l1.09375 0l0 6.453125l-1.09375 0zm8.200714 -1.046875l0 1.046875l-5.890625 0q-0.015625 -0.390625 0.125 -0.765625q0.234375 -0.59375 0.71875 -1.171875q0.5 -0.59375 1.4375 -1.359375q1.453125 -1.1875 1.953125 -1.875q0.515625 -0.703125 0.515625 -1.3125q0 -0.65625 -0.46875 -1.09375q-0.453125 -0.453125 -1.203125 -0.453125q-0.796875 0 -1.265625 0.46875q-0.46875 0.46875 -0.484375 1.3125l-1.125 -0.109375q0.125 -1.265625 0.875 -1.921875q0.75 -0.65625 2.015625 -0.65625q1.28125 0 2.03125 0.71875q0.75 0.703125 0.75 1.75q0 0.53125 -0.21875 1.046875q-0.21875 0.515625 -0.734375 1.09375q-0.5 0.5625 -1.671875 1.5625q-0.984375 0.828125 -1.265625 1.125q-0.28125 0.296875 -0.46875 0.59375l4.375 0z" fill-rule="nonzero"/><path fill="#000000" fill-opacity="0.0" d="m25.21407 114.51706l1.0393696 69.354324" fill-rule="evenodd"/><path stroke="#000000" stroke-width="1.0" stroke-linejoin="round" stroke-linecap="butt" d="m25.21407 114.51706l0.9494629 63.35501" fill-rule="evenodd"/><path fill="#000000" stroke="#000000" stroke-width="1.0" stroke-linecap="butt" d="m24.511984 177.89682l1.7195492 4.5128326l1.5835457 -4.562332z" fill-rule="evenodd"/><path fill="#000000" fill-opacity="0.0" d="m4.201715 131.32588l27.307087 0l0 42.015747l-27.307087 0z" fill-rule="evenodd"/><path fill="#000000" d="m14.43609 146.77713l0 -1.890625l1.640625 0l0 1.890625l-1.640625 0zm0 11.46875l0 -9.671875l1.640625 0l0 9.671875l-1.640625 0z" fill-rule="nonzero"/><path fill="#000000" fill-opacity="0.0" d="m260.5538 61.986877l46.236237 58.83465" fill-rule="evenodd"/><path stroke="#000000" stroke-width="1.0" stroke-linejoin="round" stroke-linecap="butt" d="m260.5538 61.986877l46.236237 58.83465" fill-rule="evenodd"/><path fill="#000000" fill-opacity="0.0" d="m304.69028 119.767715c1.0503235 3.3272095 2.099762 0.0013122559 6.3018494 19.963257c4.2020874 19.961945 15.758972 83.17366 18.910767 99.808395" fill-rule="evenodd"/><path stroke="#000000" stroke-width="1.0" stroke-linejoin="round" stroke-linecap="butt" d="m304.69028 119.767715c1.0503235 3.3272095 2.099762 0.0013122559 6.3018494 19.963257c4.2020874 19.961945 15.758972 83.17366 18.910767 99.808395" fill-rule="evenodd"/></g></svg>